<?xml version="1.0" encoding="UTF-8" standalone="no"?>
<svg
   xmlns:dc="http://purl.org/dc/elements/1.1/"
   xmlns:cc="http://creativecommons.org/ns#"
   xmlns:rdf="http://www.w3.org/1999/02/22-rdf-syntax-ns#"
   xmlns:svg="http://www.w3.org/2000/svg"
   xmlns="http://www.w3.org/2000/svg"
   xmlns:xlink="http://www.w3.org/1999/xlink"
   xmlns:sodipodi="http://sodipodi.sourceforge.net/DTD/sodipodi-0.dtd"
   xmlns:inkscape="http://www.inkscape.org/namespaces/inkscape"
   sodipodi:docname="logo.svg"
   inkscape:version="1.0 (4035a4fb49, 2020-05-01)"
   id="svg8"
   version="1.1"
   viewBox="0 0 456.41049 470"
   height="470mm"
   width="456.41049mm">
  <defs
     id="defs2">
    <linearGradient
       id="linearGradient869"
       inkscape:collect="always">
      <stop
         id="stop865"
         offset="0"
         style="stop-color:#7ecc00;stop-opacity:1" />
      <stop
         id="stop867"
         offset="1"
         style="stop-color:#00cdff;stop-opacity:1" />
    </linearGradient>
    <linearGradient
       gradientTransform="matrix(4.1373011,0,0,4.1373011,-378.10903,-362.57849)"
       gradientUnits="userSpaceOnUse"
       y2="190.85512"
       x2="91.795158"
       y1="99.811356"
       x1="150.87689"
       id="linearGradient871"
       xlink:href="#linearGradient869"
       inkscape:collect="always" />
  </defs>
  <sodipodi:namedview
     inkscape:window-maximized="1"
     inkscape:window-y="-6"
     inkscape:window-x="-6"
     inkscape:window-height="898"
     inkscape:window-width="1536"
     showgrid="false"
     inkscape:document-rotation="0"
     inkscape:current-layer="layer1"
     inkscape:document-units="mm"
     inkscape:cy="1002.3406"
     inkscape:cx="812.12682"
     inkscape:zoom="0.175"
     inkscape:pageshadow="2"
     inkscape:pageopacity="0.0"
     borderopacity="1.0"
     bordercolor="#666666"
     pagecolor="#ffffff"
     id="base" />
  <metadata
     id="metadata5">
    <rdf:RDF>
      <cc:Work
         rdf:about="">
        <dc:format>image/svg+xml</dc:format>
        <dc:type
           rdf:resource="http://purl.org/dc/dcmitype/StillImage" />
        <dc:title></dc:title>
      </cc:Work>
    </rdf:RDF>
  </metadata>
  <g
     transform="translate(156.62013,-3.9164233)"
     id="layer1"
     inkscape:groupmode="layer"
     inkscape:label="Layer 1">
    <path
       d="m 212.94973,400.99683 12.92666,51.70661 q -62.31314,21.21298 -134.238364,21.21298 -123.963352,0 -190.585357,-74.2454 -57.672799,-64.30184 -57.672799,-156.77718 0,-101.75597 68.279266,-170.366692 68.279288,-68.6107247 169.372373,-68.6107247 94.795501,0 156.777151,56.6784227 61.9817,56.346964 61.9817,142.524674 0,65.29621 -39.44288,108.71652 -39.44288,43.08884 -99.10437,43.08884 -31.8195,0 -51.04375,-11.60083 -18.892815,-11.93231 -18.892815,-31.81948 0,-9.28067 3.645987,-23.86458 l 12.595188,-48.06067 q 1.32585,-5.63467 1.32585,-12.92666 0,-26.84766 -26.184777,-26.84766 -16.241182,0 -28.504978,12.59519 -11.932266,12.26375 -11.932266,28.50493 0,21.21298 20.218621,21.21298 9.612108,0 18.561339,-3.31452 l -29.830728,82.20031 q -10.606504,1.65724 -17.567015,1.65724 -36.1283642,0 -57.672783,-21.21297 -21.212972,-21.54443 -21.212972,-58.00422 0,-59.33006 43.0888659,-103.08181 Q 41.257189,116.2789 99.924333,116.2789 q 42.094467,0 67.616367,21.87588 25.85329,21.54443 25.85329,56.67843 0,14.58391 -4.30887,32.15093 l -9.94359,40.10576 -1.98872,6.96051 q -2.6516,9.61215 -2.6516,16.57266 0,15.9097 14.58391,15.9097 22.53877,0 41.10016,-32.15088 18.56133,-32.15093 18.56133,-71.26237 0,-65.95909 -46.07191,-107.059242 -45.74051,-41.100155 -119.654469,-41.100155 -79.5486779,0 -131.586738,53.695387 -51.706673,53.36385 -51.706673,135.23269 0,70.59944 40.437246,119.32302 49.386464,59.66151 152.468311,59.66151 58.667143,0 120.317353,-21.8759 z"
       style="font-style:normal;font-variant:normal;font-weight:normal;font-stretch:normal;font-size:164.072px;line-height:1.25;font-family:'Bauhaus 93';-inkscape-font-specification:'Bauhaus 93, ';fill:url(#linearGradient871);fill-opacity:1;stroke:none;stroke-width:16.9704"
       id="path841" />
  </g>
</svg>
